<?xml version="1.0" standalone="no"?>
<!DOCTYPE svg PUBLIC "-//W3C//DTD SVG 20010904//EN"
 "http://www.w3.org/TR/2001/REC-SVG-20010904/DTD/svg10.dtd">
<svg version="1.0" xmlns="http://www.w3.org/2000/svg"
 width="811.000000pt" height="811.000000pt" viewBox="0 0 811.000000 811.000000"
 preserveAspectRatio="xMidYMid meet">

<g transform="translate(0.000000,811.000000) scale(0.100000,-0.100000)"
fill="#000000" stroke="none">
<path d="M3803 7611 c-168 -62 -367 -232 -517 -441 -105 -145 -226 -388 -242
-483 l-5 -32 22 30 c104 135 232 224 306 212 117 -19 156 -136 98 -297 -70
-191 -159 -365 -362 -702 -122 -202 -126 -208 -190 -249 -72 -48 -88 -74 -78
-136 l6 -42 -65 -51 c-42 -33 -68 -62 -75 -83 l-11 -32 -247 -63 c-585 -150
-953 -306 -1017 -431 -91 -175 87 -321 516 -426 53 -13 122 -27 152 -30 31 -4
56 -11 56 -15 0 -5 -19 -41 -42 -82 -121 -213 -207 -473 -242 -733 -20 -144
-32 -373 -19 -360 5 6 36 48 68 95 92 131 254 320 276 320 10 0 -156 -525
-219 -690 -118 -307 -290 -694 -397 -890 -31 -58 -90 -154 -130 -215 -107
-160 -115 -191 -69 -283 50 -100 164 -170 287 -177 40 -2 109 -8 154 -14 45
-6 137 -12 205 -13 110 -1 131 -4 201 -30 43 -17 149 -53 235 -82 l157 -53 3
-49 c2 -27 1 -68 -3 -91 -6 -40 -10 -45 -60 -68 -59 -28 -119 -88 -143 -144
-20 -48 -20 -147 1 -187 39 -76 149 -137 300 -168 141 -29 237 -17 419 54 125
49 154 69 179 124 21 46 25 139 9 197 -12 42 1 185 16 182 6 -1 97 -7 202 -14
l192 -13 34 -60 34 -60 16 58 17 57 37 -3 c34 -3 37 -6 49 -48 22 -75 51 -231
58 -310 4 -41 8 -81 11 -88 2 -8 23 11 50 45 68 84 164 191 283 315 l103 108
67 1 c36 0 131 6 211 13 80 8 148 11 152 7 12 -11 12 -156 -1 -231 -16 -94 -5
-145 45 -200 29 -31 56 -46 159 -84 203 -74 317 -83 470 -35 139 42 218 102
245 184 35 107 -35 243 -157 304 -50 25 -55 39 -51 140 l3 73 125 43 c69 23
168 59 220 80 l95 37 205 2 c157 2 222 7 280 20 41 10 93 22 116 25 51 9 102
40 148 91 50 56 68 104 64 171 -4 49 -15 73 -97 210 -206 344 -359 703 -713
1672 -11 32 -18 61 -14 64 13 13 190 -181 265 -289 41 -59 77 -106 79 -104 2
3 -2 64 -8 138 -19 227 -54 417 -111 595 -32 101 -126 309 -179 394 -36 59
-36 59 -9 59 87 0 434 97 543 152 71 35 145 97 166 138 24 48 26 119 4 166
-64 135 -451 297 -1084 454 -198 48 -198 49 -256 102 -47 44 -49 51 -29 116 6
18 0 30 -33 61 -22 21 -60 49 -84 62 -134 75 -641 912 -882 1459 -152 344
-238 487 -322 536 -63 37 -174 44 -251 15z m172 -70 c97 -44 166 -164 270
-471 105 -313 322 -728 607 -1162 54 -82 93 -148 88 -148 -4 0 -36 7 -70 16
-34 8 -69 13 -78 9 -24 -10 40 -64 205 -176 74 -50 133 -93 131 -95 -2 -2 -28
3 -58 11 -117 30 -361 66 -480 71 -137 5 -137 -1 0 -36 212 -54 333 -114 275
-136 -9 -4 -104 3 -213 15 -342 36 -515 44 -867 37 -181 -3 -364 -8 -405 -11
-75 -4 -75 -4 -33 9 23 8 117 24 210 36 92 12 170 24 173 26 9 10 -26 23 -80
31 -80 12 -330 5 -435 -11 -142 -22 -147 4 -15 89 197 128 479 219 800 257
169 21 116 31 -122 25 -240 -6 -297 -12 -486 -53 -67 -15 -125 -24 -128 -21
-12 12 11 52 138 244 188 286 281 490 328 723 24 117 26 258 5 299 -28 55 -88
47 -184 -24 -34 -25 -61 -40 -61 -33 0 19 129 134 185 165 40 22 63 28 116 28
80 0 128 -27 192 -110 35 -45 43 -51 45 -35 4 26 -46 135 -82 177 -109 129
-297 85 -513 -121 -51 -48 -93 -82 -93 -74 0 18 112 159 202 253 176 186 316
249 433 196z m710 -2230 c454 -44 920 -147 1398 -311 146 -50 392 -154 403
-171 7 -12 -86 -11 -256 1 -462 32 -945 49 -1650 60 -758 10 -1392 -4 -2280
-51 -662 -36 -617 -35 -601 -15 23 27 132 84 242 126 395 148 1228 321 1729
360 74 5 155 12 180 14 86 7 726 -3 835 -13z m-80 -571 c454 -16 911 -52 956
-75 38 -20 202 -196 279 -299 122 -164 194 -296 274 -498 39 -100 96 -290 96
-324 0 -5 -41 30 -92 79 -50 49 -178 158 -284 243 -274 220 -347 321 -400 556
-28 121 -38 153 -53 162 -5 4 -13 -4 -17 -16 -11 -33 -8 -222 5 -292 6 -33 9
-61 8 -63 -6 -6 -181 -21 -191 -16 -6 2 -22 27 -35 56 -14 29 -53 80 -87 115
-176 176 -424 183 -626 18 l-58 -47 -96 10 c-107 11 -132 23 -172 81 -15 22
-30 39 -33 40 -4 0 -18 -18 -33 -40 -38 -57 -60 -68 -168 -81 l-97 -11 -52 45
c-83 73 -215 127 -309 127 -54 0 -155 -27 -213 -56 -68 -35 -165 -135 -197
-203 l-25 -54 -89 6 c-49 3 -93 10 -98 15 -5 5 -2 45 7 97 22 127 19 265 -6
265 -15 0 -31 -40 -60 -151 -59 -225 -144 -344 -389 -544 -126 -102 -349 -305
-361 -327 -44 -81 -2 120 57 279 50 134 121 280 189 388 132 211 323 426 394
445 71 19 543 56 886 69 288 12 788 12 1090 1z m-1095 -326 c252 -59 370 -349
228 -560 -29 -42 -39 -49 -85 -59 -29 -7 -101 -36 -162 -65 -97 -47 -114 -52
-153 -46 -89 13 -205 103 -253 196 -111 218 10 476 250 536 68 17 99 16 175
-2z m1374 -15 c76 -28 158 -106 198 -187 31 -62 33 -74 33 -167 0 -91 -3 -105
-30 -158 -38 -77 -127 -159 -200 -186 -31 -12 -62 -21 -70 -21 -7 0 -59 21
-114 46 -56 25 -133 53 -171 62 -66 16 -70 19 -103 69 -44 67 -61 136 -55 227
6 89 32 150 93 215 112 120 268 157 419 100z m-724 -162 c30 -9 77 -18 103
-22 l49 -7 -9 -36 c-10 -47 -10 -197 0 -239 11 -41 1 -42 -106 -8 -43 14 -91
25 -107 25 -16 0 -64 -11 -107 -25 -43 -14 -90 -25 -104 -25 l-26 0 14 53 c14
49 12 158 -3 227 -5 25 -3 26 68 38 40 7 91 21 113 31 22 10 45 15 50 11 6 -5
35 -15 65 -23z m-1342 -143 c20 -6 22 -12 22 -85 0 -191 123 -328 334 -373 37
-7 70 -16 73 -20 3 -3 -15 -15 -41 -26 -170 -76 -372 -24 -467 120 -15 22 -18
23 -34 10 -15 -13 -17 -26 -12 -105 16 -257 175 -461 412 -531 88 -26 236 -23
342 8 l81 24 7 -64 c16 -150 59 -242 113 -242 60 0 247 127 366 248 l59 60 71
-70 c39 -39 103 -93 141 -120 143 -101 215 -122 254 -73 24 31 51 145 51 214
0 28 2 51 4 51 3 0 44 -13 93 -29 378 -127 703 32 794 387 18 73 25 194 13
226 -9 24 -39 19 -54 -10 -31 -56 -151 -126 -241 -139 -57 -8 -146 8 -213 38
l-51 24 45 12 c160 41 252 105 305 211 23 45 29 72 33 153 l5 97 52 0 c51 0
53 -1 80 -42 16 -24 79 -92 141 -153 138 -135 211 -230 269 -349 99 -202 133
-427 105 -696 -13 -124 -21 -163 -30 -153 -4 4 -24 59 -46 122 -36 108 -99
231 -122 239 -6 2 -12 -40 -16 -115 -7 -130 -34 -457 -46 -543 l-7 -55 -13 35
c-30 77 -111 227 -144 265 l-35 40 -1 -110 c0 -60 5 -159 10 -220 15 -149 -2
-248 -65 -399 l-17 -39 -28 51 c-32 60 -92 134 -123 155 l-23 15 1 -102 c0
-83 -5 -116 -27 -186 -34 -107 -116 -276 -128 -264 -4 5 -29 77 -55 159 -52
168 -91 269 -109 284 -10 8 -15 -7 -24 -65 -21 -136 -91 -277 -221 -444 -36
-47 -172 -207 -301 -356 -129 -149 -254 -293 -277 -320 -29 -35 -43 -45 -46
-34 -3 8 -20 83 -37 165 -50 232 -119 428 -182 518 -11 15 -23 27 -28 27 -18
0 -58 -147 -85 -313 l-6 -38 -85 108 c-221 281 -316 467 -358 703 l-13 75 -22
-48 c-25 -53 -62 -208 -81 -340 -7 -48 -17 -86 -22 -85 -20 7 -104 132 -148
223 -51 105 -70 179 -70 277 0 32 -4 58 -8 58 -27 0 -128 -145 -139 -201 -3
-16 -9 -29 -13 -29 -14 0 -88 176 -104 248 -14 61 -16 111 -11 305 l6 232 -35
-38 c-19 -21 -65 -99 -102 -173 -37 -74 -69 -133 -70 -131 -11 11 -46 355 -50
497 -5 181 -9 220 -22 220 -16 0 -56 -76 -112 -211 -32 -79 -61 -137 -64 -129
-14 42 -26 173 -26 288 0 110 4 147 29 243 65 257 163 426 411 708 119 135
128 141 188 125z m149 -93 c11 -85 47 -175 93 -233 41 -50 38 -62 -7 -43 -49
21 -118 88 -144 141 -23 49 -39 136 -32 182 5 29 8 32 42 32 l37 0 11 -79z
m2311 1 c3 -81 -19 -147 -73 -210 -26 -31 -122 -88 -132 -79 -2 3 14 29 36 58
51 67 81 145 88 224 7 84 8 87 45 83 l33 -3 3 -73z m-1080 -123 c29 -10 68
-19 87 -19 22 0 41 -8 55 -22 28 -31 25 -45 -14 -58 -31 -10 -40 -8 -88 19
-111 63 -211 61 -310 -6 -49 -33 -55 -34 -90 -23 -42 12 -45 20 -22 54 11 18
28 26 66 31 28 4 67 14 86 22 82 34 138 35 230 2z m-33 -133 c43 -18 49 -42 8
-30 -35 11 -137 11 -183 0 -25 -6 -32 -6 -25 2 38 41 136 54 200 28z m-349
-27 c84 -40 189 -167 224 -270 14 -39 15 -60 8 -92 -15 -67 -75 -163 -152
-245 -74 -78 -202 -176 -217 -166 -46 28 -63 247 -31 381 15 66 17 85 7 93
-10 8 -22 -4 -49 -49 -20 -33 -54 -74 -76 -91 -129 -102 -339 -130 -481 -63
-88 41 -168 117 -212 200 -32 62 -61 143 -52 143 3 0 31 -17 64 -39 116 -74
256 -90 381 -42 30 11 100 55 155 97 55 42 118 87 140 101 98 64 210 80 291
42z m722 5 c80 -23 158 -64 294 -154 147 -98 203 -120 308 -120 90 0 150 18
224 69 l47 32 -7 -28 c-60 -251 -271 -392 -527 -354 -59 9 -108 25 -172 56
-95 46 -118 65 -169 141 -43 65 -60 70 -52 13 17 -117 18 -257 2 -310 -25 -86
-28 -88 -83 -59 -26 13 -84 60 -129 105 -142 141 -184 265 -130 380 49 105
141 204 216 234 38 15 116 13 178 -5z m1641 -1319 c116 -465 206 -776 267
-912 l23 -53 -25 0 c-22 0 -30 11 -59 75 -77 167 -226 675 -305 1033 -15 70
-17 94 -8 149 7 37 14 59 18 51 4 -7 44 -161 89 -343z m-4095 172 c-43 -170
-113 -392 -181 -577 -73 -200 -210 -500 -251 -550 l-20 -25 -43 30 c-44 31
-109 107 -109 128 0 7 30 52 66 100 37 49 95 134 131 190 80 128 242 451 311
622 29 72 60 148 70 169 l16 39 13 -32 c11 -27 11 -42 -3 -94z m60 -58 c12
-59 6 -99 -38 -271 -101 -393 -284 -826 -353 -836 -13 -2 -23 -1 -23 1 0 3 20
43 45 89 112 210 253 619 326 946 13 56 26 102 30 102 3 0 9 -14 13 -31z
m4321 -559 c27 -47 89 -148 137 -225 48 -76 88 -147 88 -156 0 -36 -114 -139
-155 -139 -14 0 -80 156 -133 320 -66 205 -166 560 -176 630 -6 37 11 10 92
-150 54 -107 120 -233 147 -280z m-3840 -120 c20 -47 65 -134 98 -193 47 -84
63 -105 68 -90 4 10 15 40 24 66 10 27 27 60 40 75 l22 26 32 -64 c38 -77 54
-99 180 -249 l95 -114 21 60 c11 32 33 81 48 107 l29 48 55 -84 c63 -94 89
-129 185 -245 37 -45 68 -84 68 -87 0 -3 -15 -3 -32 -1 -18 3 -100 12 -183 20
-254 27 -523 83 -752 156 -131 42 -316 109 -327 119 -4 5 6 50 23 102 38 115
74 270 96 408 9 58 18 120 21 138 3 19 21 51 41 73 l36 40 37 -113 c21 -62 55
-151 75 -198z m3110 270 c44 -45 52 -48 58 -22 5 24 10 1 42 -197 22 -135 81
-404 101 -456 9 -22 -265 -128 -481 -185 -205 -54 -477 -99 -705 -116 l-95 -7
106 109 c58 60 129 144 157 187 29 42 56 77 61 77 12 0 120 -117 151 -163 14
-20 29 -37 33 -37 4 0 53 92 109 205 l101 205 24 -33 c13 -17 38 -56 55 -86
l31 -53 59 153 c57 149 119 346 133 422 4 20 10 37 14 37 4 0 25 -18 46 -40z
m-3209 -1366 c-11 -31 -15 -35 -21 -21 -4 10 0 27 10 43 23 35 28 25 11 -22z
m234 40 c0 -3 -9 -19 -21 -35 -11 -16 -26 -56 -33 -89 -14 -69 -26 -69 -26 -1
0 57 40 130 73 131 4 0 7 -3 7 -6z m2715 -37 c17 -30 25 -59 25 -90 0 -64 -16
-67 -24 -4 -4 28 -18 71 -32 95 -20 33 -22 42 -10 42 8 0 27 -20 41 -43z m195
-18 c0 -10 -2 -19 -5 -19 -5 0 -35 68 -35 79 1 15 40 -43 40 -60z"/>
<path d="M3355 4236 c-84 -31 -139 -138 -115 -225 12 -46 59 -105 101 -127 36
-18 122 -18 157 0 65 34 105 98 106 171 1 131 -127 225 -249 181z"/>
<path d="M4675 4231 c-143 -65 -155 -258 -21 -342 48 -31 151 -23 201 15 122
94 85 295 -63 336 -51 14 -71 12 -117 -9z"/>
</g>
</svg>
